<svg version="1.1" viewBox="0.0 0.0 960.0 444.09448818897636" fill="none" stroke="none" stroke-linecap="square" stroke-miterlimit="10" xmlns:xlink="http://www.w3.org/1999/xlink" xmlns="http://www.w3.org/2000/svg"><clipPath id="p.0"><path d="m0 0l960.0 0l0 444.09448l-960.0 0l0 -444.09448z" clip-rule="nonzero"/></clipPath><g clip-path="url(#p.0)"><path fill="#000000" fill-opacity="0.0" d="m0 0l960.0 0l0 444.09448l-960.0 0z" fill-rule="evenodd"/><path fill="#073763" d="m480.0 1.2346026l-440.53543 440.53546l881.0709 0z" fill-rule="evenodd"/><path stroke="#000000" stroke-width="1.7034120734908136" stroke-linejoin="round" stroke-linecap="round" d="m480.0 1.2346026l-440.53543 440.53546l881.0709 0z" fill-rule="evenodd"/><path fill="#000000" fill-opacity="0.0" d="m435.56943 113.57153l39.255127 39.255646l49.43686 -25.176186l-25.176208 49.43685l39.255676 39.255127l-54.81488 -8.701996l-25.175507 49.43718l-8.701263 -54.814972l-54.815002 -8.701263l49.437195 -25.175522z" fill-rule="evenodd"/><path fill="#000000" fill-opacity="0.0" d="m472.257 441.64456l15.1874695 0l13.719757 -26.410278l55.863434 6.0588684l-38.809937 -38.814453l24.226562 -49.36154l-49.128876 24.007324l-39.718353 -39.718353l7.8577576 55.424896l-48.923004 26.477417l54.077972 10.090698z" fill-rule="evenodd"/><path fill="#000000" fill-opacity="0.0" d="m675.9454 441.64447l25.998596 0.06262207l6.099121 -11.209381l52.94586 8.077026l-38.14319 -38.14322l24.906738 -50.041718l-49.357056 25.13498l-39.270874 -39.270874l8.524475 55.205627l-50.48474 25.801727l55.196716 8.967499z" fill-rule="evenodd"/><path fill="#000000" fill-opacity="0.0" d="m247.27608 300.477l8.56926 55.2146l-48.54715 26.020966l53.943756 8.873535l8.264954 51.1828l2.5014343 0l23.506134 -45.786163l55.850006 8.251526l-39.977875 -39.35141l24.745667 -49.491333l-48.54715 24.423462z" fill-rule="evenodd"/><defs><linearGradient id="p.1" gradientUnits="userSpaceOnUse" gradientTransform="matrix(5.803008683243709 0.0 0.0 5.803008683243709 0.0 0.0)" spreadMethod="pad" x1="86.42985354563432" y1="66.75998137984347" x2="80.62684486254552" y2="66.75993897718554"><stop offset="0.0" stop-color="#ffffff"/><stop offset="1.0" stop-color="#cccccc"/></linearGradient></defs><path fill="url(#p.1)" d="m488.57904 387.40875l-20.700806 21.223145l5.1023865 32.63983l13.921234 0l14.65094 -28.760468z" fill-rule="evenodd"/><defs><linearGradient id="p.2" gradientUnits="userSpaceOnUse" gradientTransform="matrix(5.145636345866994 5.145636345866993 -5.145636345866993 5.145636345866994 0.0 0.0)" spreadMethod="pad" x1="51.912639382338696" y1="-13.059461979066542" x2="46.76700303661231" y2="-13.059500019436765"><stop offset="0.0" stop-color="#ffffff"/><stop offset="1.0" stop-color="#cccccc"/></linearGradient></defs><path fill="url(#p.2)" d="m307.84525 173.44675l-18.176147 18.176132l44.653564 8.301285z" fill-rule="evenodd"/><defs><linearGradient id="p.3" gradientUnits="userSpaceOnUse" gradientTransform="matrix(2.679576889237157 2.6795768892371568 -2.6795768892371568 2.679576889237157 0.0 0.0)" spreadMethod="pad" x1="92.48703010300933" y1="-8.582646865980774" x2="89.80745321384397" y2="-8.58266648114029"><stop offset="0.0" stop-color="#ffffff"/><stop offset="1.0" stop-color="#cccccc"/></linearGradient></defs><path fill="url(#p.3)" d="m263.64386 217.64812l-12.795868 12.795853l2.4687195 11.891296z" fill-rule="evenodd"/><defs><linearGradient id="p.4" gradientUnits="userSpaceOnUse" gradientTransform="matrix(5.057908499797819 5.0579084997978185 -5.0579084997978185 5.057908499797819 0.0 0.0)" spreadMethod="pad" x1="52.662593139340075" y1="23.984592880416706" x2="47.60468463967955" y2="23.9845556135877"><stop offset="0.0" stop-color="#ffffff"/><stop offset="1.0" stop-color="#cccccc"/></linearGradient></defs><path fill="url(#p.4)" d="m119.270386 362.2899l-18.39286 18.392883l43.53228 7.632263l-24.687134 -25.968597" fill-rule="evenodd"/><defs><linearGradient id="p.5" gradientUnits="userSpaceOnUse" gradientTransform="matrix(2.321604570726105 2.32160457072375 -2.32160457072375 2.321604570726105 0.0 0.0)" spreadMethod="pad" x1="106.03476661033994" y1="71.27926654155615" x2="103.71316203968944" y2="71.27924780528939"><stop offset="0.0" stop-color="#ffffff"/><stop offset="1.0" stop-color="#cccccc"/></linearGradient></defs><path fill="url(#p.5)" d="m75.29869 406.2632l-13.012573 13.012573l2.2519913 8.527435z" fill-rule="evenodd"/><defs><linearGradient id="p.6" gradientUnits="userSpaceOnUse" gradientTransform="matrix(6.294852185955969 0.0 0.0 6.294852185955969 0.0 0.0)" spreadMethod="pad" x1="45.82747118285532" y1="47.919462911704656" x2="39.532618997064546" y2="47.91941730721986"><stop offset="0.0" stop-color="#ffffff"/><stop offset="1.0" stop-color="#cccccc"/></linearGradient></defs><path fill="url(#p.6)" d="m248.852 301.64594l8.931747 54.992126l26.501312 13.805786l4.19162 -29.532837z" fill-rule="evenodd"/><defs><linearGradient id="p.7" gradientUnits="userSpaceOnUse" gradientTransform="matrix(7.317535197023999 0.0 0.0 7.317535197023999 0.0 0.0)" spreadMethod="pad" x1="46.16630090983887" y1="43.06525239430406" x2="38.84876571300856" y2="43.065199152368486"><stop offset="0.0" stop-color="#ffffff"/><stop offset="1.0" stop-color="#cccccc"/></linearGradient></defs><path fill="url(#p.7)" d="m337.82312 315.1315l-49.18109 25.75064l-4.3648376 29.283478l28.677155 -5.6456604z" fill-rule="evenodd"/><defs><linearGradient id="p.8" gradientUnits="userSpaceOnUse" gradientTransform="matrix(8.270541812868776 0.0 0.0 8.270541812868776 0.0 0.0)" spreadMethod="pad" x1="42.62625203763578" y1="44.07539968620019" x2="34.35571022498106" y2="44.07534018272444"><stop offset="0.0" stop-color="#ffffff"/><stop offset="1.0" stop-color="#cccccc"/></linearGradient></defs><path fill="url(#p.8)" d="m352.54193 404.45657l-39.92914 -39.929108l-28.472443 5.782135l13.060364 25.039368z" fill-rule="evenodd"/><defs><linearGradient id="p.9" gradientUnits="userSpaceOnUse" gradientTransform="matrix(5.803701218665934 0.0 0.0 5.803701218665934 0.0 0.0)" spreadMethod="pad" x1="51.177321055425" y1="63.75834193665781" x2="45.373619836913925" y2="63.75829953905965"><stop offset="0.0" stop-color="#ffffff"/><stop offset="1.0" stop-color="#cccccc"/></linearGradient></defs><path fill="url(#p.9)" d="m271.7995 444.72992l25.217865 -49.561676l-13.167999 -25.13385l-20.514435 21.469818z" fill-rule="evenodd"/><defs><linearGradient id="p.10" gradientUnits="userSpaceOnUse" gradientTransform="matrix(8.667841695640513 0.0 0.0 8.667841695640513 0.0 0.0)" spreadMethod="pad" x1="32.7513751640157" y1="41.165252768335016" x2="24.083533468593416" y2="41.16519126092618"><stop offset="0.0" stop-color="#ffffff"/><stop offset="1.0" stop-color="#cccccc"/></linearGradient></defs><path fill="url(#p.10)" d="m208.75226 381.50684l54.67453 9.795258l20.456696 -21.002625l-26.094482 -13.485565z" fill-rule="evenodd"/><defs><linearGradient id="p.11" gradientUnits="userSpaceOnUse" gradientTransform="matrix(6.294855443418325 0.0 0.0 6.294855443418325 0.0 0.0)" spreadMethod="pad" x1="111.18770262209354" y1="53.56464823544599" x2="104.8928471788404" y2="53.5646026309848"><stop offset="0.0" stop-color="#ffffff"/><stop offset="1.0" stop-color="#cccccc"/></linearGradient></defs><path fill="url(#p.11)" d="m660.28534 337.18173l8.931763 54.992126l26.501282 13.805756l4.1916504 -29.532806z" fill-rule="evenodd"/><defs><linearGradient id="p.12" gradientUnits="userSpaceOnUse" gradientTransform="matrix(7.317536598117507 0.0 0.0 7.317536598117507 0.0 0.0)" spreadMethod="pad" x1="102.39195659869084" y1="47.9214934045371" x2="95.07442000074717" y2="47.921442964818326"><stop offset="0.0" stop-color="#ffffff"/><stop offset="1.0" stop-color="#cccccc"/></linearGradient></defs><path fill="url(#p.12)" d="m749.2565 350.6673l-49.18109 25.75064l-4.364868 29.283478l28.677185 -5.645691z" fill-rule="evenodd"/><defs><linearGradient id="p.13" gradientUnits="userSpaceOnUse" gradientTransform="matrix(8.270544292179894 0.0 0.0 8.270544292179894 0.0 0.0)" spreadMethod="pad" x1="92.35927401509623" y1="48.375334439222954" x2="84.0887297231304" y2="48.37527493576504"><stop offset="0.0" stop-color="#ffffff"/><stop offset="1.0" stop-color="#cccccc"/></linearGradient></defs><path fill="url(#p.13)" d="m763.8611 440.01947l-39.929077 -39.92914l-28.472473 5.7821655l13.060364 25.039368z" fill-rule="evenodd"/><defs><linearGradient id="p.14" gradientUnits="userSpaceOnUse" gradientTransform="matrix(8.667836964317516 0.0 0.0 8.667836964317516 0.0 0.0)" spreadMethod="pad" x1="80.21805371019727" y1="45.26500649902365" x2="71.55021674613285" y2="45.264940260239506"><stop offset="0.0" stop-color="#ffffff"/><stop offset="1.0" stop-color="#cccccc"/></linearGradient></defs><path fill="url(#p.14)" d="m620.1856 417.0426l54.6745 9.795288l20.456726 -21.002625l-26.094482 -13.485565z" fill-rule="evenodd"/><defs><linearGradient id="p.15" gradientUnits="userSpaceOnUse" gradientTransform="matrix(6.294852185950173 0.0 0.0 6.294852185950173 0.0 0.0)" spreadMethod="pad" x1="75.47507704796773" y1="18.058638164204883" x2="69.18022486217117" y2="18.058594188451686"><stop offset="0.0" stop-color="#ffffff"/><stop offset="1.0" stop-color="#cccccc"/></linearGradient></defs><path fill="url(#p.15)" d="m435.4793 113.67647l8.931732 54.992126l26.501312 13.805771l4.19162 -29.532806z" fill-rule="evenodd"/><defs><linearGradient id="p.16" gradientUnits="userSpaceOnUse" gradientTransform="matrix(7.317533795915268 0.0 0.0 7.317533795915268 0.0 0.0)" spreadMethod="pad" x1="71.6704347446715" y1="17.377715740605613" x2="64.35290094893985" y2="17.37766389976368"><stop offset="0.0" stop-color="#ffffff"/><stop offset="1.0" stop-color="#cccccc"/></linearGradient></defs><path fill="url(#p.16)" d="m524.45044 127.16203l-49.18112 25.750656l-4.3648376 29.283463l28.677185 -5.6456757z" fill-rule="evenodd"/><defs><linearGradient id="p.17" gradientUnits="userSpaceOnUse" gradientTransform="matrix(8.270541812868776 0.0 0.0 8.270541812868776 0.0 0.0)" spreadMethod="pad" x1="65.20052695267813" y1="21.35678173553096" x2="56.929985140023405" y2="21.356722232055205"><stop offset="0.0" stop-color="#ffffff"/><stop offset="1.0" stop-color="#cccccc"/></linearGradient></defs><path fill="url(#p.17)" d="m539.2434 216.56131l-39.92914 -39.92914l-28.472443 5.7821503l13.060364 25.039368z" fill-rule="evenodd"/><defs><linearGradient id="p.18" gradientUnits="userSpaceOnUse" gradientTransform="matrix(5.803701218665934 0.0 0.0 5.803701218665934 0.0 0.0)" spreadMethod="pad" x1="83.33392070733223" y1="31.37048458557156" x2="77.53021948882115" y2="31.3704421879734"><stop offset="0.0" stop-color="#ffffff"/><stop offset="1.0" stop-color="#cccccc"/></linearGradient></defs><path fill="url(#p.18)" d="m458.4268 256.76047l25.217865 -49.56169l-13.167969 -25.133865l-20.514435 21.469818z" fill-rule="evenodd"/><defs><linearGradient id="p.19" gradientUnits="userSpaceOnUse" gradientTransform="matrix(8.667841695644752 0.0 0.0 8.667841695644752 0.0 0.0)" spreadMethod="pad" x1="54.282374822392086" y1="19.479410573835857" x2="45.61453312697404" y2="19.479347883592233"><stop offset="0.0" stop-color="#ffffff"/><stop offset="1.0" stop-color="#cccccc"/></linearGradient></defs><path fill="url(#p.19)" d="m395.37955 193.53735l54.67456 9.795288l20.456696 -21.00264l-26.094513 -13.48555z" fill-rule="evenodd"/><defs><linearGradient id="p.20" gradientUnits="userSpaceOnUse" gradientTransform="matrix(6.294852185955969 0.0 0.0 6.294852185955969 0.0 0.0)" spreadMethod="pad" x1="78.3181974435962" y1="50.64731471461506" x2="72.02334525780543" y2="50.64726911013026"><stop offset="0.0" stop-color="#ffffff"/><stop offset="1.0" stop-color="#cccccc"/></linearGradient></defs><path fill="url(#p.20)" d="m453.37628 318.81735l8.931763 54.992126l26.501312 13.805786l4.19162 -29.532806z" fill-rule="evenodd"/><defs><linearGradient id="p.21" gradientUnits="userSpaceOnUse" gradientTransform="matrix(7.317536598117507 0.0 0.0 7.317536598117507 0.0 0.0)" spreadMethod="pad" x1="74.11617321857922" y1="45.411856789898934" x2="66.79863662063556" y2="45.41180635018015"><stop offset="0.0" stop-color="#ffffff"/><stop offset="1.0" stop-color="#cccccc"/></linearGradient></defs><path fill="url(#p.21)" d="m542.3474 332.30292l-49.18109 25.750671l-4.3648376 29.283447l28.677155 -5.6456604z" fill-rule="evenodd"/><defs><linearGradient id="p.22" gradientUnits="userSpaceOnUse" gradientTransform="matrix(8.270541812868776 0.0 0.0 8.270541812868776 0.0 0.0)" spreadMethod="pad" x1="67.35526185813556" y1="46.15137182424846" x2="59.08472004548084" y2="46.151312320772696"><stop offset="0.0" stop-color="#ffffff"/><stop offset="1.0" stop-color="#cccccc"/></linearGradient></defs><path fill="url(#p.22)" d="m557.0642 421.626l-39.92914 -39.92914l-28.472443 5.7821655l13.060364 25.039368z" fill-rule="evenodd"/><defs><linearGradient id="p.23" gradientUnits="userSpaceOnUse" gradientTransform="matrix(8.667841695640513 0.0 0.0 8.667841695640513 0.0 0.0)" spreadMethod="pad" x1="56.34713595514634" y1="43.146302317630635" x2="47.67929425972405" y2="43.1462408102218"><stop offset="0.0" stop-color="#ffffff"/><stop offset="1.0" stop-color="#cccccc"/></linearGradient></defs><path fill="url(#p.23)" d="m413.27655 398.67825l54.67456 9.795288l20.456665 -21.002625l-26.094482 -13.485565z" fill-rule="evenodd"/><defs><linearGradient id="p.24" gradientUnits="userSpaceOnUse" gradientTransform="matrix(5.783974007191384 0.0 0.0 5.783974007191384 0.0 0.0)" spreadMethod="pad" x1="122.46423818498383" y1="70.1802190257683" x2="116.6802641779489" y2="70.18017648356603"><stop offset="0.0" stop-color="#ffffff"/><stop offset="1.0" stop-color="#cccccc"/></linearGradient></defs><path fill="url(#p.24)" d="m695.5029 405.92056l-20.62732 20.992126l2.1863403 14.868774l25.874023 -0.07348633l5.393738 -11.078766z" fill-rule="evenodd"/><defs><linearGradient id="p.25" gradientUnits="userSpaceOnUse" gradientTransform="matrix(2.3216014480007363 2.3216014480007363 -2.3216014480007363 2.3216014480007363 0.0 0.0)" spreadMethod="pad" x1="410.6687426428472" y1="-28.331218920135743" x2="408.34714119489894" y2="-28.33123453371239"><stop offset="0.0" stop-color="#ffffff"/><stop offset="1.0" stop-color="#cccccc"/></linearGradient></defs><path fill="url(#p.25)" d="m1013.79315 882.24554l-13.012573 13.012573l2.2520142 8.527405z" fill-rule="evenodd"/></g></svg>